<svg xmlns="http://www.w3.org/2000/svg" xmlns:xlink="http://www.w3.org/1999/xlink" viewBox="0 0 666 666"><defs><linearGradient id="Tkt_Blue" x1="465.72" y1="335.97" x2="511.98" y2="335.97" gradientUnits="userSpaceOnUse"><stop offset="0" stop-color="#0075be"/><stop offset="0.99" stop-color="#005b97"/></linearGradient><linearGradient id="Tkt_Blue-2" x1="124.63" y1="335.41" x2="358.96" y2="335.41" xlink:href="#Tkt_Blue"/><linearGradient id="Tkt_Blue-3" x1="143.6" y1="285.03" x2="224.36" y2="285.03" xlink:href="#Tkt_Blue"/><linearGradient id="Tkt_Blue-4" x1="134.52" y1="217.55" x2="157.34" y2="217.55" xlink:href="#Tkt_Blue"/><linearGradient id="Tkt_Blue-5" x1="212.8" y1="353.37" x2="229.19" y2="353.37" xlink:href="#Tkt_Blue"/><linearGradient id="Tkt_Blue-6" x1="269.76" y1="261.33" x2="279.32" y2="261.33" xlink:href="#Tkt_Blue"/><linearGradient id="Tkt_Blue-7" x1="0" y1="335.5" x2="666" y2="335.5" xlink:href="#Tkt_Blue"/><linearGradient id="Tkt_Blue-8" x1="291.87" y1="333" x2="377.22" y2="333" xlink:href="#Tkt_Blue"/><linearGradient id="Tkt_Blue-9" x1="124.63" y1="323.58" x2="358.96" y2="323.58" xlink:href="#Tkt_Blue"/><linearGradient id="linear-gradient" x1="466.69" y1="292.17" x2="513.07" y2="292.17" gradientTransform="matrix(1, 0, 0, -1, 0, 627)" gradientUnits="userSpaceOnUse"><stop offset="0" stop-color="#0075be"/><stop offset="0.99" stop-color="#005b97"/></linearGradient></defs><g id="Layer_2" data-name="Layer 2"><g id="Ebene_1" data-name="Ebene 1"><rect width="666" height="666" style="fill:none"/><path d="M512,335.72c.34,30.63-46.17,30.52-46.26.29C466.38,306.12,511.18,305.31,512,335.72Z" style="stroke:#fff;stroke-miterlimit:10;stroke-width:5px;fill:url(#Tkt_Blue)"/><path d="M319.66,336.55a5.79,5.79,0,0,1,.07-2.86,13.86,13.86,0,0,1-1.81,1.7c.42.4.8.82,1.24,1.19l-.2-.16c.31.21.54.5.84.7C319.75,336.93,319.7,336.74,319.66,336.55Z" style="fill:url(#Tkt_Blue-2)"/><path d="M162.4,225.82l-18.8,10.85,62,107.56,18.78-10.87Z" style="stroke:#fff;stroke-miterlimit:10;stroke-width:3px;fill:url(#Tkt_Blue-3)"/><path d="M157.34,217.3c-7.77-20.73-32.53-6.63-18.7,10.82Z" style="stroke:#fff;stroke-miterlimit:10;stroke-width:3px;fill:url(#Tkt_Blue-4)"/><path d="M229.19,363.46c-.75-7-1.44-13.37-2.18-20.19l-14.21,8.2Z" style="stroke:#fff;stroke-miterlimit:10;stroke-width:3px;fill:url(#Tkt_Blue-5)"/><path d="M274.65,266.22c6.36,0,6.14-9.85-.12-9.79S268.14,266.5,274.65,266.22Z" style="fill:url(#Tkt_Blue-6)"/><path d="M487.43,157.45C322.5-50.12-34.77,103.72,2.74,365.54c15.3,220,308.59,326.78,463,170.19C531.75,468.36,596,398.79,666,335.57,604.65,277.94,545.65,218.21,487.43,157.45ZM111,336.62C106.85,174.7,329.81,112,411.75,241.94l-91.67,91.37-.67.72c-.33.34-.67.68-1,1l-.15.13-.22.21,1.73,1.72h0a2,2,0,0,1,.51.5,0,0,0,0,0,0,0l91.93,91.5C331.54,558.67,110.37,500.08,111,336.62Zm330-1.84c1.29-64.29,96.92-64.14,97.75.38C536.94,399.17,442.42,398.85,441,334.78Z" style="fill:url(#Tkt_Blue-7)"/><path d="M136.68,247.44c13-7.47,20.76-23.31,33.7-30.74-13-36.55-56.87-19.43-45.4,9.93C126.84,230.74,134.27,243.12,136.68,247.44Z" style="fill:#fff"/><path d="M377.18,286.57c-1.74-41.64-51.95-28.25-79.93-30.15-8.53.24-6.1,11.5,1.52,9.86h40c14.35-1.8,29,4.82,28.58,21q0,34,0,68c-1.16,15.21,5.41,38.88-12.42,45.75l4,9.12c10.72-4.59,18.47-15.57,18.24-27.46Q377.26,334.66,377.18,286.57Z" style="fill:url(#Tkt_Blue-8)"/><path d="M354.94,401.07c-4.07,1.69-9.3,1.78-13.83,1.53-4-.46-6.34,1.33-8.23,4.79-5.14,9.33-10.43,18.32-15.83,27.54-5.76-9.47-11.1-19.05-16.6-28.66a6.55,6.55,0,0,0-6.37-3.67c-37,0-74-.19-111,.16-12.77.12-22.27-9.29-22.11-22.29.39-30.88.11-61.76.12-92.65l.42-.2c14.32,22.38,25.07,47.65,41.17,68.61,9.36,7,18.84,13.81,28.24,20.75,5.66,4.55,10.16.66,9.28-5.94,31-.05,62.1.09,93.13-.05a4.82,4.82,0,0,0,4.42-4.53c.36-3.89-3.62-5.66-7-5.3-30.64,0-61.2,0-91.84,0-.7-6.57-1.39-13-2.11-19.78q42.24,0,84.42,0L317.8,338l.2.16c-1.58-1.21-3.44-3-1-4.5l0,0c.78-.68,1.47-1.47,2.18-2.22-26.69,0-53.39-.05-80.08.09-3.35,0-5.12-1-6.62-3.91-2.7-5.25-5.83-10.28-9.1-16,36.56,0,73,0,109.56,0a4.85,4.85,0,0,0,4.87-4.62c.32-3.91-3.84-5.72-7.3-5.25q-55,0-110,.05a4.14,4.14,0,0,1-4.22-2.43c-6.23-11.18-12.73-21.93-19-33.15,17.81,0,35.39,0,53.17,0,4.54,0,6.86-1.65,6.89-4.88s-2.37-5-6.8-5c-18.83,0-37.67,0-56.5.05a3.79,3.79,0,0,1-3.85-2.23c-8-14-16.29-27.84-24-42-6.77-13.7-19.74-19.9-33.23-10.89-9.83,6.43-10.34,20-4.15,29.16,7.91,13.95,16,27.8,23.94,41.73-2.39,164.9-24.09,138.41,137.59,140.26,6.17-.2,17.75,32.54,25.8,37.59h2c7.83-4.67,19.86-38.19,25.83-37.58a32.71,32.71,0,0,0,15.13-2.3Z" style="fill:url(#Tkt_Blue-9)"/><path d="M224.36,333.36l-62-107.54-18.8,10.85,62,107.56Z" style="fill:#fff"/><path d="M138.64,228.12l18.7-10.82C149.57,196.57,124.81,210.67,138.64,228.12Z" style="fill:#fff"/><path d="M212.8,351.47l16.39,12c-.75-7-1.44-13.37-2.18-20.19Z" style="fill:#fff"/><path d="M513.07,334.53A22.94,22.94,0,0,1,490.63,358h-.56a23.19,23.19,0,0,1-23.38-23v-.14a23.43,23.43,0,0,1,22.76-23.12,22.93,22.93,0,0,1,23.61,22.23C513.06,334.14,513.07,334.33,513.07,334.53Z" style="stroke:#fff;stroke-miterlimit:10;fill:url(#linear-gradient)"/></g></g></svg>